<?xml version="1.0" encoding="UTF-8"?>
<svg id="_图层_1" data-name="图层 1" xmlns="http://www.w3.org/2000/svg" viewBox="0 0 197.06 55.06">
  <defs>
    <style>
      .cls-1 {
        fill-rule: evenodd;
      }
    </style>
  </defs>
  <g id="_图层_2" data-name="图层 2">
    <g id="_图层_1-2" data-name="图层 1">
      <path id="_路径_1" data-name="路径 1" class="cls-1" d="M141.11,46.36c-2.11-.44-.86-1.12-1.19-2.87-.29-1.55-1.69-3.07-1.65-4.21.12-3.1,4.08-2.87,6.49-1.92.58.36,1.07.85,1.43,1.43,1.1,1.59,2.41,3.91.7,5.73-1.5,1.51-3.63,2.22-5.73,1.92"/>
      <path id="_路径_2" data-name="路径 2" class="cls-1" d="M117.18,43.14l-.2-.09v-.67c2.2-1.26,4.33-2.64,6.38-4.14,1.75-1.17,3.04-2.92,3.62-4.94-4.1,1.35-7.98,4.3-12.22,4.66-1.64-.56-3.21-1.28-4.7-2.16v-.23c-2.25-1.43-2.45-3.35,0-4.17,4.3.95,10.8-2.11,14.83-3.64,1.5-.5,2.92-1.22,4.21-2.15.95-5.63.33-11.29.66-16.68,1.43-3.91,3.81-1.26,6.22.7.17.31.72.67,1.2,1.43h.24c1.02,1.63,1.3,2.38-.29,3.9-1.09,2.73-1.58,5.66-1.43,8.6,2.87-.42,4.7-2.98,8.11-3.04.92,1.39.57,3.26-.79,4.23-2.48,1.19-5.17,2.25-7.98,3.52-.6,3.12-1.9,6.06-3.8,8.6-.62.7-1.29,1.36-2.02,1.95-1.69,1.18-3.52,2.14-5.45,2.87-2.12.75-4.33,1.23-6.58,1.43"/>
      <path id="_路径_3" data-name="路径 3" class="cls-1" d="M64.49,52.75c-2.01-1.21-3.71-2.88-4.97-4.86.19-.54.37-1.09.59-1.6,4.87-3.39,9.5-7.12,13.84-11.17,1.32-2.02,3.02-4.13,4.44-6.12.07-.05.16-.08.24-.09,0-.07,0-.14,0-.22,1.22-.95,1.73-1.2,2.77.36.09,1.32-2.26,2.71-2.99,3.94-.92,2.34-1.96,4.71-3.15,7.17-.73.89-1.38,1.85-1.92,2.87-1.55,1.47-2.81,3.22-3.71,5.16-1.43.87-2.15,3.54-3.97,4.47-.38.02-.77.06-1.15.13"/>
      <path id="_路径_4" data-name="路径 4" class="cls-1" d="M92.7,36c-2.95-.13-3.78-2.01-5.39-3.73,0-.77.42-1.23.49-1.78.42-.06.83-.21,1.19-.44,1.23-.17,1.68-.1,3.01-.19,1.71-.39,6.05-3.38,7.51-2.09.21,3.58-3.68,7.17-6.81,8.23"/>
      <path id="_路径_5" data-name="路径 5" class="cls-1" d="M70.06,30.36c-1.12-.99-1.35-5.55-1.43-6.98.83-2.54,3.4-2.64,5.53-.99,1.71,2.24,2.87,3.17,1.07,5.73-1.39,1.35-3.24,2.13-5.17,2.19"/>
      <path id="_路径_6" data-name="路径 6" class="cls-1" d="M91.97,28.15c-.3-1.43,1.6-4.3,1.06-5.06-.72.1-1.43.37-2.19.42-1.78-.86-3.73-3.02-3.01-4.69,1.3-1.43.8-1.1,2.87-1.23,1.95-.87,3.9-1.72,5.88-2.57,3.31-.62,4.83,1.2,5.03,4.44-.72,2.02-1.86,3.85-3.35,5.39-1.75.96-3.34,2.02-4.93,3.07-.45.03-.9.11-1.33.23"/>
      <path id="_路径_7" data-name="路径 7" class="cls-1" d="M73.81,18.79c-.7-.62-.42-.95,0-1.58-.09-1.36-.9-2.47-.99-3.77.44-2.41,0-3.28,1.98-4.44,1.55.69,6.94,3.44,5.73,6.46-1.75,1.85-4.08,3.02-6.61,3.32"/>
      <path id="_路径_8" data-name="路径 8" class="cls-1" d="M4.02,55.06c-3.21-1.23-6-7.58-2.14-9.14.12-.58.51-1.06,1.05-1.29,0-.08,0-.16,0-.24,3.11-3.01,5.14-7.17,7.77-10.53.67-1.26,1.03-2.48,2.46-2.87.73.63.47,2.08.27,3.18.32.29,1.43.07,2.09-.13,2.16-1.88,4.99-3.51,7.17-5.47.11-.96.21-1.92.37-2.87-1.52.36-6.46,1.52-5.27-1.27,1.85-.73,4.67-2.32,5.73-4.3.47-2.03.2-4.3,1.23-5.73,2.08-1.07,4.54,1.55,4.96,3.8.83,1.43,3.44-.36.2,4.21-.69.5-.66,1.43-.53,2.54h.72c1.89-1.4,3.85-2.7,5.88-3.9.36-2.73,1.18-5.38,2.44-7.84,2.02-1.43,4.76.11,6.72,1.69,1.43-.15,2.78-.76,3.84-1.73.5-.16,1.03-.21,1.55-.16.42.78.64,1.65.63,2.54-.96,2.98-9.5,3.96-7.85,7.42,1.43-.1,1.99-1.72,2.55-2.87,1.66-.89,5.27.19,7.01,1.43,1.95,2.36.44,3.17-1.71,4.66-.23.32-.44.65-.63.96q-.14,4.76,0,11.21c-.58,1.51-1.47,2.87-2.61,4.01v.2h-.36c-.83,1.43-2.87,2.87-4.04,1.43,0-5.3.27-10.79.09-15.76-.09.01-.18.04-.26.09-.39,2.58-2.97,7.42-5.17,9.01-1.9.15-3.66-.99-4.3-2.78.21-.53.6-.65,1.03-1.02,1.15-2.35.8-6.68.8-8.99-1.66.24-4.44,3.98-5.73,5.37-.83.67-1.68,1.33-2.49,2.01-.59,1.96-1.05,3.9-1.56,6-.44.93-.89,1.92-1.35,2.87h-.23c-.77,1.3-3.28,4.73-4.77,2.58v-.85c1.27-1.9,2.03-4.1,2.19-6.38-2.02.67-3.37,2.52-5.4,2.65-1.08-.19-2.12-.53-3.11-1,0-.08,0-.15,0-.23-.5-.31-1-.74-1.3-.63-.37,1.13-.73,2.32-1.07,3.5-2.06,4.34-3.73,8.85-5,13.48-.46.57-1.11.95-1.83,1.08"/>
      <path id="_路径_9" data-name="路径 9" class="cls-1" d="M8.01,29.78c-.63-.92.14-2.11.17-3.17-.99-3-1.78-5.23.13-7.75l.92-.09c1.72,1.38,3.24,2.98,4.54,4.76,1.43,3.58-3.17,5.19-5.73,6.23"/>
      <path id="_路径_10" data-name="路径 10" class="cls-1" d="M10.89,18.19c-.76-.26-.75-.43-.89-.69.36-.73.7-1.16.56-1.91-1.83-2.87-1.73-7.16,1.43-8.51.93.11.95.9,1.43,2.16,2.06,2.01,5.9,4.49,2.26,7.16-1.53.67-3.2,1.2-4.73,1.73"/>
      <path id="_路径_11" data-name="路径 11" class="cls-1" d="M163.94,29.18c-2.87-.89-2.34-5.6-1.85-7.51,2.09-1.33,4.84,1.43,5,3.9-.54,2.71-.52,3.11-3.15,3.61"/>
      <path id="_路径_12" data-name="路径 12" class="cls-1" d="M179.45,50.92l-.24-.14c-3.54.28-7.11-.16-10.48-1.29-.13-.22-.19-.48-.17-.73,1.93-1.13,4.67-.82,6.16-2.87.27-1.42.36-2.86.26-4.3-3.64.22-5.59,2.87-8.47,3.84-2.46.14-6.86-2.09-7.58-4.06,0-3.17.66-1.75,4.05-1.95,4.04-.72,8.08-3.05,11.99-4.76.38-.35.82-.63,1.3-.82.86-2.64,1.43-3.11,4.21-3.64q1.07-.54,4.21-2.44c.07-.32.16-.63.27-.93-4.76.57-8.6,4.43-12.4,6.96-1.53.45-3.17.31-4.6-.39-.83.12-5.56.96-3.27-.93,1.43-.54,2.48-1.56,3.97-2.22,3.57-2.39,7.7-4.46,11.55-6.66-.01-.39-.14-.77-.37-1.09,0-.64.14-1.26.39-1.85-.72.26-.92.2-1.06.75-2.28,1-3.25,3.08-5.16.89-.35,1.94-1.97,3.39-3.94,3.52-2.04-1.05-2.09-4.46-2.45-6.03-.14-.2-.43-1.52-.99-3.05-.93-1.88-2.64-3.98-1.5-5.73,1.43-.89,2.04-1.22,3.27.74,1.3.94,2.46,2.05,3.45,3.3h.23c.65,1.73,2.24,4.01,2.06,6.22,1.07-.63,2.59-1.86,1.81-3.22-1.76-.95-.76-2.59.47-3.2.67.05,1.34.03,2.01-.07.02-.25-.08-.51-.27-.67-1.43-.52-1.19-.86-.8-2.06-1.44-.44-2.25-1.96-1.82-3.39.03-.1.07-.21.11-.31q4.99-1.25,7.31-1.99c1.55-1.93,3.23-7.16,6.24-6.25,1.08,1.37,1.59,3.1,1.43,4.83-.47.72-.83,1.51-1.06,2.34h.9c2.08-1.03,3.04-2.26,4.3.83,2.02,1.09,2.74.8,1.98,3.73-1.43,2.94-3.04,6.08-4.66,9.03-.02.13-.02.27,0,.4.37.07.75.15,1.12.26.21,1.51.28,3.04.21,4.57-1.25,1.85-2.87,1.85-4.82,2.11-2.54,1.26-4.82,2.31-7.16,3.73-.06.53,0,1.06.16,1.56h3.69c1.36.89,1.25,3.37.4,4.81-1.21.08-2.39.42-3.45,1-.13.67-.26,1.36-.37,2.06.09,2.64,1.43,9.01-2.45,9.61M187.2,18.46c1.26-1.02,1.99-2.56,1.98-4.18-1.14-.76-2.51-1.1-3.87-.96-.37.97-.85,1.9-1.43,2.77l.39.17c-.13.03-.25.09-.36.16.01.08.04.16.07.23.47-.02.9-.3,1.1-.73,1.92-.32,1.96.37,1.82,2.42.09.03.17.08.24.13"/>
    </g>
  </g>
</svg>